<?xml version="1.0" encoding="UTF-8"?>
<svg id="Layer_2" data-name="Layer 2" xmlns="http://www.w3.org/2000/svg" viewBox="0 0 663.19 76.55">
  <defs>
    <style>
      .cls-1 {
        fill: #fff;
      }
    </style>
  </defs>
  <g id="Layer_1-2" data-name="Layer 1">
    <g>
      <path class="cls-1" d="M246.34,40.37h-4.53l-4.01,9.46c-.83,1.95-.52,2.58,1.31,2.58v.32h-6.91v-.32c1.71,0,2.27-.36,2.9-1.83l9.85-23.2c.83-1.95.52-2.58-1.31-2.58v-.32h9.5c4.65,0,9.1,1.31,8.3,7.31-.52,4.13-4.49,8.58-15.1,8.58ZM248.45,24.79l-6.52,15.26h4.49c7.03,0,11.52-3.1,12.28-8.42.6-4.09-1.39-6.83-6.32-6.83h-3.93Z"/>
      <path class="cls-1" d="M256.95,52.72l5.52-12.99c.83-1.95.52-2.58-1.31-2.58v-.32h4.93l-5.21,11.84c1.63-2.98,3.85-6.4,5.44-8.46,1.91-2.46,3.38-3.46,5.17-3.46.6,0,1.11.12,1.51.36l-1.71,4.01h-.32c.24-1.35-.28-2.26-1.35-2.26-1.19,0-2.62,1.11-4.37,3.58-1.55,2.11-4.53,6.91-5.72,9.38l-.4.91h-2.19Z"/>
      <path class="cls-1" d="M284.33,47.96c-1.95,3.22-4.53,4.97-7.39,4.97-3.1,0-4.93-2.03-4.93-5.56,0-5.72,4.85-11.09,10.21-11.09,2.42,0,3.89,1.11,3.89,2.9,0,3.5-5.6,6.28-11.6,5.84-.12.64-.16,1.31-.16,1.95,0,3.14,1.43,4.93,3.89,4.93,2.15,0,4.09-1.35,5.76-4.09l.32.16ZM274.59,44.7c4.93.32,9.34-2.34,9.34-5.72,0-1.51-.87-2.38-2.3-2.38-3.06,0-6.16,3.85-7.03,8.11Z"/>
      <path class="cls-1" d="M285,52.72l5.52-12.99c.83-1.95.52-2.58-1.31-2.58v-.32h4.93l-4.61,10.57c1.75-2.98,3.81-6.16,5.32-8.03,1.79-2.19,3.1-3.1,4.53-3.1,3.66,0,1.43,4.69.95,5.8l-2.34,5.36c1.75-2.98,3.85-6.2,5.36-8.07,1.79-2.19,3.1-3.1,4.53-3.1,3.66,0,1.47,4.69.99,5.8-1.91,4.53-2.94,6.83-2.94,8.62,0,1.07.36,1.67,1.03,1.67.44,0,.95-.28,1.43-.79l.24.24c-.64.68-1.51,1.07-2.42,1.07-1.47,0-2.42-1.07-2.42-2.78,0-3.58,4.09-9.5,4.09-12.36,0-.64-.2-.99-.68-.99-3.1,0-9.85,12.32-11.01,14.74l-.52,1.23h-2.19l4.29-10.13c.79-1.91,1.59-3.66,1.59-4.89,0-.6-.2-.95-.68-.95-3.1,0-9.81,12.28-10.97,14.7l-.56,1.27h-2.19Z"/>
      <path class="cls-1" d="M316.35,42.08c-1.95,4.53-2.94,6.83-2.94,8.62,0,1.07.36,1.67,1.03,1.67.44,0,.95-.28,1.43-.79l.24.24c-.64.68-1.51,1.07-2.42,1.07-1.47,0-2.42-1.07-2.42-2.78,0-1.11.4-2.54,1.11-4.25l2.62-6.12c.83-1.95.52-2.58-1.31-2.58v-.32h4.93l-2.27,5.25ZM318.54,32.5c-2.19,0-1.19-3.54,1.19-3.54s1.15,3.54-1.19,3.54Z"/>
      <path class="cls-1" d="M332.6,42.08c-1.95,4.53-2.94,6.83-2.94,8.62,0,1.07.36,1.67,1.03,1.67.44,0,.95-.28,1.43-.79l.24.24c-.64.68-1.51,1.07-2.42,1.07-1.47,0-2.42-1.07-2.42-2.78,0-.95.4-2.38.99-3.89-1.39,2.34-4.01,6.68-7.03,6.68-1.59,0-2.54-1.15-2.42-3.02.2-2.82,2.94-8.3,3.5-10.89.28-1.31.04-2.07-.64-2.07-.36,0-.79.2-1.35.64l-.2-.24c.64-.64,1.55-1.03,2.38-1.03,1.51,0,2.3,1.31,1.91,3.34-.52,2.5-3.22,7.87-3.5,10.69-.12,1.31.28,2.07,1.03,2.07,3.38,0,8.11-10.09,9.26-12.64.83-1.95.52-2.58-1.31-2.58v-.32h4.73l-2.26,5.25Z"/>
      <path class="cls-1" d="M333.4,52.72l5.52-12.99c.83-1.95.52-2.58-1.31-2.58v-.32h4.93l-4.61,10.57c1.75-2.98,3.81-6.16,5.32-8.03,1.79-2.19,3.1-3.1,4.53-3.1,3.66,0,1.43,4.69.95,5.8l-2.34,5.36c1.75-2.98,3.85-6.2,5.36-8.07,1.79-2.19,3.1-3.1,4.53-3.1,3.66,0,1.47,4.69.99,5.8-1.91,4.53-2.94,6.83-2.94,8.62,0,1.07.36,1.67,1.03,1.67.44,0,.95-.28,1.43-.79l.24.24c-.64.68-1.51,1.07-2.42,1.07-1.47,0-2.42-1.07-2.42-2.78,0-3.58,4.09-9.5,4.09-12.36,0-.64-.2-.99-.68-.99-3.1,0-9.85,12.32-11.01,14.74l-.52,1.23h-2.19l4.29-10.13c.79-1.91,1.59-3.66,1.59-4.89,0-.6-.2-.95-.68-.95-3.1,0-9.81,12.28-10.97,14.7l-.56,1.27h-2.19Z"/>
      <path class="cls-1" d="M384.58,24.47h.4l-1.43,26.34c-.04.83.52,1.59,2.07,1.59v.32h-6.6v-.32c1.27,0,2.23-.56,2.26-1.39l.44-7.79h-8.42l-4.09,6.6c-.95,1.55-.16,2.58,2.03,2.58v.32h-6.91v-.32c1.63,0,3.62-1.11,4.49-2.54l15.77-25.39ZM382.51,28.45l-9.02,14.46h8.22l.79-14.46Z"/>
      <path class="cls-1" d="M387.88,52.72l5.52-12.99c.83-1.95.52-2.58-1.31-2.58v-.32h4.93l-5.21,11.84c1.63-2.98,3.85-6.4,5.44-8.46,1.91-2.46,3.38-3.46,5.17-3.46.6,0,1.11.12,1.51.36l-1.71,4.01h-.32c.24-1.35-.28-2.26-1.35-2.26-1.19,0-2.62,1.11-4.37,3.58-1.55,2.11-4.53,6.91-5.72,9.38l-.4.91h-2.19Z"/>
      <path class="cls-1" d="M415.21,47.96c-1.95,3.22-4.53,4.97-7.43,4.97-3.06,0-4.89-2.03-4.89-5.4,0-5.88,4.85-11.24,10.09-11.24,1.91,0,3.5.72,4.29,1.95l-1.47,3.5h-.32c.16-3.46-.83-5.13-2.9-5.13-3.66,0-7.35,5.24-7.35,10.49,0,3.02,1.43,4.81,3.89,4.81,2.18,0,4.09-1.39,5.76-4.09l.32.16Z"/>
      <path class="cls-1" d="M429.08,50.7c0,1.07.36,1.67,1.03,1.67.44,0,.95-.28,1.43-.79l.24.24c-.64.68-1.51,1.07-2.42,1.07-1.47,0-2.42-1.07-2.42-2.78,0-3.58,4.09-9.5,4.09-12.24,0-.79-.32-1.15-1.03-1.15-1.27,0-2.86,1.23-4.81,3.85-2.03,2.74-5.32,8.26-6.71,11.17l-.44.99h-2.19l10.81-25.35c.83-1.95.52-2.58-1.31-2.58v-.32h4.93l-10.29,23.76c1.67-3.02,3.85-6.48,5.44-8.5,1.91-2.46,3.38-3.46,5.09-3.46,1.59,0,2.46.83,2.46,2.34,0,1.35-.71,2.9-1.79,5.4-1.07,2.58-2.11,4.89-2.11,6.68Z"/>
      <path class="cls-1" d="M439.49,42.08c-1.95,4.53-2.94,6.83-2.94,8.62,0,1.07.36,1.67,1.03,1.67.44,0,.95-.28,1.43-.79l.24.24c-.64.68-1.51,1.07-2.42,1.07-1.47,0-2.42-1.07-2.42-2.78,0-1.11.4-2.54,1.11-4.25l2.62-6.12c.83-1.95.52-2.58-1.31-2.58v-.32h4.93l-2.26,5.25ZM441.68,32.5c-2.19,0-1.19-3.54,1.19-3.54s1.15,3.54-1.19,3.54Z"/>
      <path class="cls-1" d="M444.22,50.62c0,1.15.44,1.75,1.23,1.75.56,0,1.15-.28,1.63-.79l.24.24c-.64.68-1.59,1.07-2.54,1.07-1.63,0-2.7-1.11-2.7-2.86,0-1.03.4-2.46,1.11-4.17l3.74-8.7h-3.97v-.32h4.09l2.78-6.48h2.38c-1.11,2.62-2.03,4.77-2.78,6.48h4.65v.32l-4.81.04c-.91,2.15-1.59,3.7-2.11,4.89-1.95,4.53-2.94,6.83-2.94,8.54Z"/>
      <path class="cls-1" d="M463.37,47.96c-1.95,3.22-4.53,4.97-7.39,4.97-3.1,0-4.93-2.03-4.93-5.56,0-5.72,4.85-11.09,10.21-11.09,2.42,0,3.89,1.11,3.89,2.9,0,3.5-5.6,6.28-11.6,5.84-.12.64-.16,1.31-.16,1.95,0,3.14,1.43,4.93,3.89,4.93,2.15,0,4.09-1.35,5.76-4.09l.32.16ZM453.63,44.7c4.93.32,9.34-2.34,9.34-5.72,0-1.51-.88-2.38-2.3-2.38-3.06,0-6.16,3.85-7.03,8.11Z"/>
      <path class="cls-1" d="M478.27,47.96c-1.95,3.22-4.53,4.97-7.43,4.97-3.06,0-4.89-2.03-4.89-5.4,0-5.88,4.85-11.24,10.09-11.24,1.91,0,3.5.72,4.29,1.95l-1.47,3.5h-.32c.16-3.46-.83-5.13-2.9-5.13-3.66,0-7.35,5.24-7.35,10.49,0,3.02,1.43,4.81,3.89,4.81,2.18,0,4.09-1.39,5.76-4.09l.32.16Z"/>
      <path class="cls-1" d="M482.84,50.62c0,1.15.44,1.75,1.23,1.75.56,0,1.15-.28,1.63-.79l.24.24c-.64.68-1.59,1.07-2.54,1.07-1.63,0-2.7-1.11-2.7-2.86,0-1.03.4-2.46,1.11-4.17l3.74-8.7h-3.97v-.32h4.09l2.78-6.48h2.38c-1.11,2.62-2.03,4.77-2.78,6.48h4.65v.32l-4.81.04c-.91,2.15-1.59,3.7-2.11,4.89-1.95,4.53-2.94,6.83-2.94,8.54Z"/>
      <path class="cls-1" d="M503.38,42.08c-1.95,4.53-2.94,6.83-2.94,8.62,0,1.07.36,1.67,1.03,1.67.44,0,.95-.28,1.43-.79l.24.24c-.63.68-1.51,1.07-2.42,1.07-1.47,0-2.42-1.07-2.42-2.78,0-.95.4-2.38.99-3.89-1.39,2.34-4.01,6.68-7.03,6.68-1.59,0-2.54-1.15-2.42-3.02.2-2.82,2.94-8.3,3.5-10.89.28-1.31.04-2.07-.64-2.07-.36,0-.79.2-1.35.64l-.2-.24c.64-.64,1.55-1.03,2.38-1.03,1.51,0,2.3,1.31,1.91,3.34-.52,2.5-3.22,7.87-3.5,10.69-.12,1.31.28,2.07,1.03,2.07,3.38,0,8.11-10.09,9.26-12.64.83-1.95.52-2.58-1.31-2.58v-.32h4.73l-2.26,5.25Z"/>
      <path class="cls-1" d="M504.18,52.72l5.52-12.99c.83-1.95.52-2.58-1.31-2.58v-.32h4.93l-5.21,11.84c1.63-2.98,3.85-6.4,5.44-8.46,1.91-2.46,3.38-3.46,5.17-3.46.6,0,1.11.12,1.51.36l-1.71,4.01h-.32c.24-1.35-.28-2.26-1.35-2.26-1.19,0-2.62,1.11-4.37,3.58-1.55,2.11-4.53,6.91-5.72,9.38l-.4.91h-2.19Z"/>
      <path class="cls-1" d="M533.18,51.81c-.64.68-1.51,1.07-2.42,1.07-1.47,0-2.42-1.07-2.42-2.78,0-.83.2-1.79.6-2.94-2.22,3.77-4.53,5.72-6.87,5.72-3.18,0-4.17-3.7-2.5-8.38,1.63-4.57,5.13-8.22,9.26-8.22,2.15,0,3.74.99,4.21,2.62l2.34-2.07h.32l-2.26,5.25c-1.95,4.53-2.94,6.83-2.94,8.62,0,1.07.36,1.67,1.03,1.67.44,0,.95-.28,1.43-.79l.24.24ZM529.57,36.71c-3.02,0-6.12,3.81-7.59,8.11-1.47,4.17-1.03,7.55.91,7.55s4.89-3.34,6.99-7.55l2.18-5.09c.08-1.99-.95-3.02-2.5-3.02Z"/>
      <path class="cls-1" d="M540.89,42.08c-1.95,4.53-2.94,6.83-2.94,8.54,0,1.15.44,1.75,1.23,1.75.56,0,1.15-.28,1.63-.79l.24.24c-.64.68-1.59,1.07-2.54,1.07-1.63,0-2.7-1.11-2.7-2.86,0-.99.36-2.42,1.11-4.17l7.91-18.48c.83-1.95.52-2.58-1.31-2.58v-.32h4.93l-7.55,17.6Z"/>
      <path class="cls-1" d="M559.33,39.02l-4.61,10.81c-.83,1.95-.52,2.58,1.31,2.58v.32h-6.91v-.32c1.71,0,2.26-.36,2.9-1.83l9.85-23.2c.83-1.95.52-2.58-1.31-2.58v-.32h16.21l-1.15,6.68h-.32c.36-2.58.48-6.36-3.81-6.36h-6.12l-5.92,13.91h4.93c3.02,0,4.49-1.07,6-4.05h.32l-3.54,8.42h-.32c.99-2.78.36-4.05-2.54-4.05h-4.97Z"/>
      <path class="cls-1" d="M576.17,42.08c-1.95,4.53-2.94,6.83-2.94,8.62,0,1.07.36,1.67,1.03,1.67.44,0,.95-.28,1.43-.79l.24.24c-.64.68-1.51,1.07-2.42,1.07-1.47,0-2.42-1.07-2.42-2.78,0-1.11.4-2.54,1.11-4.25l2.62-6.12c.83-1.95.52-2.58-1.31-2.58v-.32h4.93l-2.26,5.25ZM578.36,32.5c-2.19,0-1.19-3.54,1.19-3.54s1.15,3.54-1.19,3.54Z"/>
      <path class="cls-1" d="M577.17,52.72l5.52-12.99c.83-1.95.52-2.58-1.31-2.58v-.32h4.93l-4.93,11.24c1.67-2.98,3.81-6.36,5.36-8.34,1.91-2.46,3.38-3.46,5.09-3.46,1.59,0,2.46.83,2.46,2.34,0,1.35-.71,2.86-1.79,5.4-1.07,2.58-2.11,4.89-2.11,6.68,0,1.07.36,1.67,1.03,1.67.44,0,.95-.28,1.43-.79l.24.24c-.64.68-1.51,1.07-2.42,1.07-1.47,0-2.42-1.07-2.42-2.78,0-3.58,4.09-9.5,4.09-12.24,0-.75-.36-1.15-1.03-1.15-1.27,0-2.86,1.23-4.81,3.85-1.99,2.7-5.25,8.15-6.68,11.09l-.48,1.07h-2.19Z"/>
      <path class="cls-1" d="M600.81,42.08c-1.95,4.53-2.94,6.83-2.94,8.62,0,1.07.36,1.67,1.03,1.67.44,0,.95-.28,1.43-.79l.24.24c-.64.68-1.51,1.07-2.42,1.07-1.47,0-2.42-1.07-2.42-2.78,0-1.11.4-2.54,1.11-4.25l2.62-6.12c.83-1.95.52-2.58-1.31-2.58v-.32h4.93l-2.26,5.25ZM603,32.5c-2.19,0-1.19-3.54,1.19-3.54s1.15,3.54-1.19,3.54Z"/>
      <path class="cls-1" d="M607.8,52.88c-2.58,0-4.77-.79-5.56-2.03l1.47-3.5h.32c-.16,3.26,1.27,5.21,3.77,5.21,1.95,0,3.38-1.19,3.66-3.02.64-4.33-6-5.84-5.25-9.85.4-2.19,2.62-3.42,5.76-3.42,2.46,0,4.45.75,5.21,1.95l-1.47,3.5h-.32c.24-3.18-1.27-5.13-3.62-5.13-1.67,0-3.1.95-3.38,2.46-.64,3.62,6.04,5.52,5.44,9.97-.32,2.46-2.62,3.85-6.04,3.85Z"/>
      <path class="cls-1" d="M629.14,50.7c0,1.07.36,1.67,1.03,1.67.44,0,.95-.28,1.43-.79l.24.24c-.64.68-1.51,1.07-2.42,1.07-1.47,0-2.42-1.07-2.42-2.78,0-3.58,4.09-9.5,4.09-12.24,0-.79-.32-1.15-1.03-1.15-1.27,0-2.86,1.23-4.81,3.85-2.03,2.74-5.32,8.26-6.71,11.17l-.44.99h-2.19l10.81-25.35c.83-1.95.52-2.58-1.31-2.58v-.32h4.93l-10.29,23.76c1.67-3.02,3.85-6.48,5.44-8.5,1.91-2.46,3.38-3.46,5.09-3.46,1.59,0,2.46.83,2.46,2.34,0,1.35-.71,2.9-1.79,5.4-1.07,2.58-2.11,4.89-2.11,6.68Z"/>
      <path class="cls-1" d="M647.14,47.96c-1.95,3.22-4.53,4.97-7.39,4.97-3.1,0-4.93-2.03-4.93-5.56,0-5.72,4.85-11.09,10.21-11.09,2.42,0,3.89,1.11,3.89,2.9,0,3.5-5.6,6.28-11.6,5.84-.12.64-.16,1.31-.16,1.95,0,3.14,1.43,4.93,3.89,4.93,2.15,0,4.09-1.35,5.76-4.09l.32.16ZM637.41,44.7c4.93.32,9.34-2.34,9.34-5.72,0-1.51-.88-2.38-2.3-2.38-3.06,0-6.16,3.85-7.03,8.11Z"/>
      <path class="cls-1" d="M653.82,52.88c-2.58,0-4.77-.79-5.56-2.03l1.47-3.5h.32c-.16,3.26,1.27,5.21,3.77,5.21,1.95,0,3.38-1.19,3.66-3.02.64-4.33-6-5.84-5.25-9.85.4-2.19,2.62-3.42,5.76-3.42,2.46,0,4.45.75,5.21,1.95l-1.47,3.5h-.32c.24-3.18-1.27-5.13-3.62-5.13-1.67,0-3.1.95-3.38,2.46-.64,3.62,6.04,5.52,5.44,9.97-.32,2.46-2.62,3.85-6.04,3.85Z"/>
    </g>
    <g>
      <path class="cls-1" d="M0,14.04h34.08c11.04,0,17.88,6.54,17.88,17.28s-7.2,18.6-17.88,18.6H15.84v14.52H0V14.04ZM29.4,37.68c4.32,0,6.72-1.98,6.72-5.34s-2.52-5.34-6.72-5.34h-13.56v10.68h13.56Z"/>
      <path class="cls-1" d="M67.5,14.04h25.74l20.34,50.4h-16.92l-4.2-10.92h-24.24l-4.2,10.92h-16.86l20.34-50.4ZM87.96,41.88l-5.82-15h-3.6l-5.82,15h15.24Z"/>
      <path class="cls-1" d="M117.18,14.04h47.22v12.6h-31.38v7.92h26.1v11.16h-26.1v18.72h-15.84V14.04Z"/>
    </g>
    <path class="cls-1" d="M190.87,11.34c0,5.58-4.38,9.96-10.08,9.96s-10.14-4.38-10.14-9.96,4.5-9.84,10.14-9.84,10.08,4.38,10.08,9.84ZM173.17,11.34c0,4.38,3.24,7.86,7.68,7.86s7.5-3.48,7.5-7.8-3.18-7.92-7.56-7.92-7.62,3.54-7.62,7.86ZM179.23,16.5h-2.28V6.66c.9-.18,2.16-.3,3.78-.3,1.86,0,2.7.3,3.42.72.54.42.96,1.2.96,2.16,0,1.08-.84,1.92-2.04,2.28v.12c.96.36,1.5,1.08,1.8,2.4.3,1.5.48,2.1.72,2.46h-2.46c-.3-.36-.48-1.26-.78-2.4-.18-1.08-.78-1.56-2.04-1.56h-1.08v3.96ZM179.29,10.92h1.08c1.26,0,2.28-.42,2.28-1.44,0-.9-.66-1.5-2.1-1.5-.6,0-1.02.06-1.26.12v2.82Z"/>
    <rect class="cls-1" x="212.86" width="2.8" height="76.55"/>
  </g>
</svg>